<svg width="558" height="1080" viewBox="0 0 558 1080" fill="none" xmlns="http://www.w3.org/2000/svg">
<rect width="558" height="1080" fill="black"/>
<g clip-path="url(#clip0_4_2)">
<rect x="44" y="990" width="470" height="90" fill="#2F2F2F"/>
</g>
<g clip-path="url(#clip1_4_2)">
<rect x="44" y="772" width="470" height="180" fill="#757575"/>
<path d="M288.888 882.072C288.984 882.104 289.08 882.12 289.176 882.12C289.272 882.088 289.368 882.072 289.464 882.072C290.008 882.136 290.504 882.248 290.952 882.408C291.432 882.536 291.896 882.792 292.344 883.176C292.792 883.624 293.016 884.184 293.016 884.856C293.016 885.208 292.952 885.576 292.824 885.96C292.728 886.376 292.584 886.696 292.392 886.92C292.136 887.176 291.816 887.368 291.432 887.496C291.048 887.624 290.68 887.704 290.328 887.736C289.976 887.8 289.656 887.832 289.368 887.832C289.112 887.832 288.968 887.832 288.936 887.832H262.056C261.896 887.832 261.736 887.832 261.576 887.832C261.416 887.864 261.256 887.88 261.096 887.88C260.424 887.912 259.704 887.896 258.936 887.832C258.168 887.8 257.512 887.56 256.968 887.112C256.296 886.504 255.96 885.816 255.96 885.048C255.96 884.568 256.104 884.072 256.392 883.56C256.68 883.048 257.064 882.696 257.544 882.504C258.184 882.248 258.84 882.12 259.512 882.12C260.216 882.12 260.92 882.104 261.624 882.072H261.864C264.648 882.008 267.512 882.008 270.456 882.072L270.408 875.064C269.448 875 268.504 874.888 267.576 874.728C266.648 874.568 265.752 874.312 264.888 873.96C264.024 873.608 263.208 873.16 262.44 872.616C261.704 872.04 261.048 871.336 260.472 870.504C259.736 869.512 259.24 868.456 258.984 867.336C258.76 866.216 258.648 865.048 258.648 863.832C258.648 861.336 259.304 859.256 260.616 857.592C261.96 855.896 263.784 854.68 266.088 853.944C267.624 853.432 269.176 853.112 270.744 852.984C272.344 852.824 273.944 852.808 275.544 852.936C276.856 853.032 278.168 853.16 279.48 853.32C280.792 853.48 282.056 853.832 283.272 854.376C283.816 854.632 284.344 854.936 284.856 855.288C285.368 855.64 285.848 856.056 286.296 856.536C287.416 857.752 288.184 859.064 288.6 860.472C289.016 861.88 289.16 863.384 289.032 864.984C288.904 866.808 288.472 868.36 287.736 869.64C287 870.888 286.056 871.928 284.904 872.76C283.784 873.56 282.488 874.152 281.016 874.536C279.576 874.92 278.072 875.112 276.504 875.112L276.6 882.072C277.496 882.072 278.312 882.072 279.048 882.072C279.784 882.04 280.504 882.024 281.208 882.024C281.912 882.024 282.616 882.024 283.32 882.024C284.024 882.024 284.792 882.04 285.624 882.072C286.2 882.104 286.76 882.104 287.304 882.072C287.848 882.008 288.376 882.008 288.888 882.072ZM282.744 865.704C282.84 865.288 282.872 864.888 282.84 864.504C282.776 862.84 282.248 861.608 281.256 860.808C280.296 859.976 279.048 859.464 277.512 859.272C276.616 859.176 275.512 859.08 274.2 858.984C272.888 858.856 271.592 858.888 270.312 859.08C269.064 859.272 267.96 859.672 267 860.28C266.04 860.856 265.464 861.784 265.272 863.064C265.176 863.832 265.176 864.568 265.272 865.272C265.4 865.976 265.672 866.6 266.088 867.144C266.504 867.688 267.08 868.152 267.816 868.536C268.552 868.92 269.496 869.16 270.648 869.256C271.768 869.384 272.904 869.496 274.056 869.592C275.24 869.688 276.392 869.624 277.512 869.4C278.056 869.304 278.6 869.176 279.144 869.016C279.72 868.824 280.248 868.584 280.728 868.296C281.208 868.008 281.624 867.656 281.976 867.24C282.328 866.792 282.584 866.28 282.744 865.704ZM310.177 858.072C310.177 858.072 310.161 858.312 310.129 858.792C310.129 859.272 310.129 859.816 310.129 860.424C310.129 861.032 310.129 861.592 310.129 862.104C310.161 862.616 310.177 862.904 310.177 862.968C310.337 863.128 310.625 863.4 311.041 863.784C311.457 864.136 311.809 864.44 312.097 864.696C312.417 864.952 312.737 865.24 313.057 865.56C313.409 865.848 313.761 866.168 314.113 866.52C314.337 866.744 314.545 866.968 314.737 867.192C314.929 867.384 315.105 867.56 315.265 867.72C315.873 868.328 316.481 868.984 317.089 869.688C317.697 870.392 318.113 871.112 318.337 871.848C318.433 872.136 318.449 872.456 318.385 872.808C318.321 873.16 318.113 873.464 317.761 873.72C317.217 874.04 316.641 874.2 316.033 874.2C315.329 874.2 314.657 874.056 314.017 873.768C313.377 873.48 312.865 873.192 312.481 872.904C311.873 872.456 311.313 871.992 310.801 871.512C310.289 871 309.777 870.488 309.265 869.976C308.913 869.624 308.513 869.224 308.065 868.776C307.617 868.296 307.169 867.88 306.721 867.528L305.425 868.824C305.201 869.048 304.977 869.272 304.753 869.496C304.529 869.688 304.321 869.896 304.129 870.12C303.713 870.568 303.281 871.032 302.833 871.512C302.385 871.96 301.873 872.392 301.297 872.808C299.985 873.768 298.753 874.248 297.601 874.248C297.441 874.248 297.297 874.248 297.169 874.248C297.073 874.248 296.945 874.216 296.785 874.152C296.081 873.992 295.617 873.704 295.393 873.288C295.169 872.936 295.089 872.536 295.153 872.088C295.249 871.64 295.393 871.24 295.585 870.888C295.841 870.536 296.129 870.2 296.449 869.88C296.769 869.528 297.089 869.176 297.409 868.824C297.697 868.504 298.145 868.056 298.753 867.48C299.393 866.872 300.033 866.264 300.673 865.656C301.313 865.016 301.905 864.44 302.449 863.928C302.993 863.416 303.329 863.096 303.457 862.968V858.072H300.385C300.001 858.072 299.553 858.088 299.041 858.12C298.529 858.12 298.017 858.088 297.505 858.024C297.025 857.96 296.577 857.832 296.161 857.64C295.745 857.416 295.441 857.064 295.249 856.584C295.089 856.232 294.977 855.832 294.913 855.384C294.881 854.936 294.913 854.52 295.009 854.136C295.137 853.688 295.425 853.384 295.873 853.224C296.321 853.032 296.753 852.904 297.169 852.84C297.233 852.84 297.489 852.84 297.937 852.84C298.417 852.84 298.929 852.84 299.473 852.84C300.017 852.84 300.529 852.84 301.009 852.84C301.489 852.84 301.777 852.824 301.873 852.792H313.105C314.385 852.792 315.457 852.872 316.321 853.032C317.217 853.192 317.937 853.592 318.481 854.232C318.641 854.424 318.737 854.68 318.769 855C318.833 855.32 318.833 855.656 318.769 856.008C318.737 856.328 318.641 856.632 318.481 856.92C318.353 857.208 318.161 857.416 317.905 857.544C317.649 857.64 317.345 857.752 316.993 857.88C316.641 857.976 316.337 858.04 316.081 858.072C315.633 858.104 315.169 858.12 314.689 858.12C314.241 858.088 313.793 858.072 313.345 858.072H310.177ZM328.081 885.24C328.081 885.24 328.177 885.272 328.369 885.336C328.593 885.4 328.833 885.496 329.089 885.624C329.345 885.784 329.585 885.976 329.809 886.2C330.033 886.456 330.177 886.744 330.241 887.064C330.401 888.28 330.193 889.224 329.617 889.896C329.233 890.344 328.817 890.616 328.369 890.712C327.921 890.808 327.681 890.856 327.649 890.856H303.601C302.289 890.856 301.265 890.648 300.529 890.232C299.793 889.848 299.425 889.288 299.425 888.552V881.88C299.425 881.688 299.409 881.448 299.377 881.16C299.377 880.872 299.377 880.568 299.377 880.248C299.377 879.896 299.377 879.576 299.377 879.288C299.409 879 299.425 878.76 299.425 878.568C299.489 877.896 299.809 877.352 300.385 876.936C300.961 876.52 301.617 876.312 302.353 876.312C302.513 876.312 302.705 876.328 302.929 876.36C303.185 876.36 303.393 876.392 303.553 876.456C303.969 876.584 304.305 876.808 304.561 877.128C304.817 877.416 305.009 877.752 305.137 878.136C305.265 878.52 305.345 878.936 305.377 879.384C305.409 879.8 305.441 880.184 305.473 880.536C305.473 880.664 305.473 880.968 305.473 881.448C305.473 881.896 305.473 882.392 305.473 882.936C305.473 883.448 305.473 883.928 305.473 884.376C305.473 884.792 305.473 885.048 305.473 885.144C305.569 885.176 305.825 885.208 306.241 885.24C306.689 885.304 307.505 885.336 308.689 885.336C309.713 885.336 310.625 885.32 311.425 885.288C312.225 885.256 312.641 885.24 312.673 885.24H328.081ZM321.601 866.664C320.673 866.6 319.841 866.552 319.105 866.52C318.369 866.456 317.793 866.104 317.377 865.464C317.185 865.144 317.089 864.744 317.089 864.264C317.089 863.784 317.121 863.368 317.185 863.016C317.281 862.664 317.457 862.376 317.713 862.152C317.969 861.896 318.417 861.688 319.057 861.528C319.185 861.496 319.473 861.48 319.921 861.48C320.369 861.448 320.849 861.416 321.361 861.384C321.905 861.352 322.401 861.336 322.849 861.336C323.297 861.304 323.585 861.288 323.713 861.288V856.2C323.681 855.848 323.665 855.496 323.665 855.144C323.697 854.792 323.761 854.44 323.857 854.088C323.921 853.832 323.985 853.592 324.049 853.368C324.113 853.144 324.257 852.904 324.481 852.648C324.737 852.328 325.089 852.104 325.537 851.976C326.017 851.848 326.529 851.816 327.073 851.88C328.097 852.04 328.753 852.44 329.041 853.08C329.233 853.464 329.345 853.944 329.377 854.52C329.441 855.064 329.473 855.4 329.473 855.528V875.016H329.425C329.425 875.048 329.409 875.16 329.377 875.352C329.345 875.544 329.281 875.784 329.185 876.072C329.089 876.328 328.945 876.6 328.753 876.888C328.561 877.176 328.305 877.416 327.985 877.608C327.537 877.864 327.089 877.992 326.641 877.992C326.097 877.992 325.569 877.816 325.057 877.464C324.673 877.208 324.401 876.888 324.241 876.504C324.049 876.152 323.921 875.8 323.857 875.448C323.793 875.096 323.745 874.744 323.713 874.392V866.664H321.601ZM351.787 865.752C351.307 866.488 350.731 866.936 350.059 867.096C349.419 867.256 348.795 867.208 348.187 866.952C347.579 866.696 347.067 866.28 346.651 865.704C346.267 865.096 346.107 864.408 346.171 863.64C346.203 863.128 346.331 862.568 346.555 861.96C346.779 861.352 347.051 860.776 347.371 860.232C347.723 859.656 348.091 859.128 348.475 858.648C348.891 858.136 349.307 857.704 349.723 857.352C350.491 856.744 351.355 856.216 352.315 855.768C353.307 855.32 354.331 854.984 355.387 854.76C356.475 854.536 357.547 854.44 358.603 854.472C359.691 854.504 360.699 854.664 361.627 854.952C364.187 855.752 366.171 857.016 367.579 858.744C368.987 860.472 369.691 862.712 369.691 865.464C369.691 866.776 369.563 867.96 369.307 869.016C369.083 870.04 368.667 871.032 368.059 871.992C367.483 872.952 366.699 873.928 365.707 874.92C364.747 875.912 363.547 877 362.107 878.184C361.627 878.6 361.131 879.016 360.619 879.432C360.107 879.848 359.595 880.264 359.083 880.68C358.923 880.808 358.619 881 358.171 881.256C357.723 881.512 357.323 881.768 356.971 882.024C356.619 882.28 356.411 882.52 356.347 882.744C356.283 882.968 356.539 883.096 357.115 883.128C357.819 883.192 358.379 883.208 358.795 883.176C359.211 883.144 359.771 883.128 360.475 883.128C361.307 883.128 362.123 883.112 362.923 883.08C363.723 883.048 364.523 883.064 365.323 883.128C365.643 883.16 365.995 883.176 366.379 883.176C366.763 883.144 367.147 883.144 367.531 883.176C367.915 883.176 368.283 883.224 368.635 883.32C368.987 883.384 369.291 883.528 369.547 883.752C369.803 883.976 369.995 884.28 370.123 884.664C370.251 885.048 370.315 885.448 370.315 885.864C370.347 886.312 370.315 886.728 370.219 887.112C370.123 887.528 369.963 887.848 369.739 888.072C369.323 888.552 368.811 888.776 368.203 888.744C367.595 888.744 367.019 888.744 366.475 888.744H349.243C348.923 888.744 348.571 888.76 348.187 888.792C347.835 888.824 347.515 888.792 347.227 888.696C346.651 888.536 346.363 888.232 346.363 887.784C346.395 887.336 346.411 886.872 346.411 886.392C346.411 885.592 346.603 884.856 346.987 884.184C347.371 883.48 347.851 882.84 348.427 882.264C349.035 881.656 349.675 881.096 350.347 880.584C351.019 880.072 351.643 879.576 352.219 879.096C353.051 878.36 353.947 877.624 354.907 876.888C355.867 876.152 356.779 875.416 357.643 874.68C358.763 873.752 359.707 872.904 360.475 872.136C361.275 871.368 361.915 870.648 362.395 869.976C362.875 869.304 363.227 868.648 363.451 868.008C363.675 867.336 363.787 866.632 363.787 865.896C363.787 864.264 363.291 863.016 362.299 862.152C361.307 861.256 360.043 860.808 358.507 860.808C357.387 860.808 356.331 861.048 355.339 861.528C354.379 862.008 353.579 862.712 352.939 863.64C352.747 863.992 352.555 864.36 352.363 864.744C352.203 865.096 352.011 865.432 351.787 865.752ZM406.217 856.44C406.185 856.696 406.169 856.904 406.169 857.064C406.169 857.224 406.169 857.368 406.169 857.496V860.088C406.169 860.568 406.169 861.064 406.169 861.576C406.169 862.088 406.185 862.616 406.217 863.16V866.28C406.185 866.824 406.169 867.304 406.169 867.72C406.169 868.136 406.137 868.552 406.073 868.968C405.977 869.864 405.673 870.584 405.161 871.128C404.681 871.672 403.977 872.008 403.049 872.136C402.761 872.2 402.489 872.248 402.233 872.28C402.009 872.28 401.769 872.28 401.513 872.28H400.073C399.785 872.28 399.465 872.296 399.113 872.328C398.761 872.328 398.329 872.328 397.817 872.328C397.305 872.328 396.793 872.328 396.281 872.328C395.769 872.328 395.257 872.312 394.745 872.28H381.929C381.577 872.28 381.225 872.28 380.873 872.28C380.553 872.248 380.249 872.2 379.961 872.136C379.609 872.136 379.273 872.088 378.953 871.992C378.633 871.864 378.361 871.688 378.137 871.464C377.817 871.208 377.529 870.808 377.273 870.264C377.177 870.008 377.081 869.752 376.985 869.496C376.921 869.24 376.873 868.984 376.841 868.728C376.777 868.536 376.713 868.312 376.649 868.056C376.617 867.8 376.601 867.576 376.601 867.384V857.928C376.601 857.64 376.569 857.336 376.505 857.016C376.441 856.664 376.409 856.344 376.409 856.056C376.377 855.704 376.377 855.384 376.409 855.096C376.441 854.776 376.537 854.456 376.697 854.136C376.761 853.752 376.857 853.432 376.985 853.176C377.113 852.888 377.289 852.712 377.513 852.648C377.673 852.488 377.913 852.376 378.233 852.312C378.553 852.248 378.905 852.184 379.289 852.12C379.545 852.12 379.833 852.152 380.153 852.216C380.473 852.28 380.777 852.344 381.065 852.408C381.833 852.664 382.233 853.08 382.265 853.656V855.768C382.265 856.056 382.265 856.328 382.265 856.584C382.297 856.808 382.313 857.032 382.313 857.256C382.313 857.512 382.329 857.752 382.361 857.976C382.425 858.2 382.633 858.312 382.985 858.312H399.785C399.849 858.312 399.945 858.296 400.073 858.264C400.233 858.232 400.377 858.2 400.505 858.168V857.496C400.569 857.24 400.601 857.016 400.601 856.824C400.601 856.632 400.601 856.44 400.601 856.248V854.232C400.601 853.944 400.617 853.672 400.649 853.416C400.713 853.128 400.825 852.904 400.985 852.744C401.081 852.584 401.225 852.456 401.417 852.36C401.641 852.264 401.897 852.184 402.185 852.12C402.345 852.088 402.633 852.072 403.049 852.072H404.009C404.361 852.072 404.665 852.136 404.921 852.264C405.593 852.488 405.977 852.888 406.073 853.464C406.137 853.72 406.169 853.976 406.169 854.232C406.169 854.456 406.185 854.68 406.217 854.904V856.44ZM405.545 876.216C405.865 876.216 406.153 876.248 406.409 876.312C406.665 876.376 406.921 876.472 407.177 876.6C407.593 876.76 407.977 877.048 408.329 877.464C408.585 877.816 408.713 878.36 408.713 879.096C408.713 879.512 408.665 879.864 408.569 880.152C408.473 880.408 408.249 880.664 407.897 880.92C407.385 881.336 406.777 881.592 406.073 881.688C405.209 881.88 404.393 881.976 403.625 881.976C403.209 881.976 402.825 882.008 402.473 882.072C402.153 882.104 401.865 882.12 401.609 882.12H394.169C394.233 882.568 394.265 883.128 394.265 883.8C394.297 884.44 394.313 884.936 394.313 885.288C394.345 885.96 394.297 886.744 394.169 887.64C394.073 888.216 393.897 888.76 393.641 889.272C393.545 889.816 393.209 890.28 392.633 890.664C392.377 890.856 392.089 890.984 391.769 891.048C391.481 891.144 391.193 891.192 390.905 891.192C390.201 891.192 389.609 891.016 389.129 890.664C388.681 890.472 388.377 890.12 388.217 889.608C388.089 889.32 387.977 889.064 387.881 888.84C387.817 888.648 387.785 888.44 387.785 888.216C387.721 888.056 387.689 887.88 387.689 887.688C387.689 887.496 387.689 887.304 387.689 887.112V882.12H377.513C377.097 882.12 376.713 882.088 376.361 882.024C376.009 881.96 375.689 881.896 375.401 881.832C374.665 881.576 374.121 881.16 373.769 880.584C373.545 880.296 373.401 880.008 373.337 879.72C373.273 879.432 373.241 879.112 373.241 878.76C373.241 878.152 373.481 877.624 373.961 877.176C374.217 876.92 374.505 876.728 374.825 876.6C375.081 876.504 375.273 876.44 375.401 876.408C375.561 876.376 375.753 876.36 375.977 876.36C376.169 876.296 376.345 876.264 376.505 876.264C376.665 876.264 376.825 876.264 376.985 876.264H377.369L403.913 876.12C404.169 876.12 404.441 876.12 404.729 876.12C405.017 876.12 405.289 876.152 405.545 876.216ZM400.409 865.944C400.473 865.848 400.505 865.608 400.505 865.224C400.505 865.064 400.505 864.92 400.505 864.792C400.505 864.664 400.473 864.552 400.409 864.456C400.409 864.168 400.393 863.992 400.361 863.928C400.201 863.768 400.041 863.672 399.881 863.64C399.753 863.576 399.609 863.512 399.449 863.448H388.937L386.969 863.4H385.961C385.801 863.4 385.641 863.4 385.481 863.4C385.353 863.4 385.177 863.368 384.953 863.304C384.729 863.304 384.505 863.32 384.281 863.352C384.089 863.352 383.897 863.352 383.705 863.352C383.321 863.352 382.985 863.448 382.697 863.64C382.601 863.736 382.505 863.864 382.409 864.024C382.345 864.184 382.345 864.392 382.409 864.648V866.184C382.473 866.312 382.505 866.392 382.505 866.424V866.472C382.505 866.696 382.633 866.904 382.889 867.096C383.049 867.16 383.177 867.224 383.273 867.288C383.401 867.32 383.545 867.336 383.705 867.336C384.025 867.4 384.345 867.4 384.665 867.336H397.001C397.097 867.336 397.209 867.352 397.337 867.384C397.497 867.384 397.657 867.368 397.817 867.336H398.681C398.745 867.336 398.809 867.336 398.873 867.336C398.937 867.336 399.049 867.352 399.209 867.384H399.785C399.849 867.352 399.929 867.336 400.025 867.336C400.121 867.304 400.201 867.256 400.265 867.192C400.329 867.064 400.361 866.968 400.361 866.904C400.393 866.84 400.409 866.728 400.409 866.568V865.944Z" fill="white"/>
<path d="M141.984 854.472C142.208 854.408 142.416 854.36 142.608 854.328C142.8 854.264 142.992 854.216 143.184 854.184C143.408 854.12 143.68 854.088 144 854.088C144.352 854.056 144.672 854.072 144.96 854.136C145.28 854.168 145.568 854.264 145.824 854.424C146.112 854.552 146.32 854.76 146.448 855.048C146.576 855.368 146.656 855.752 146.688 856.2C146.752 856.616 146.784 857.048 146.784 857.496C146.784 857.944 146.768 858.392 146.736 858.84C146.736 859.256 146.736 859.64 146.736 859.992V884.52C146.736 884.872 146.736 885.224 146.736 885.576C146.768 885.96 146.768 886.344 146.736 886.728C146.704 887.112 146.608 887.464 146.448 887.784C146.288 888.136 146.048 888.424 145.728 888.648C145.28 889 144.672 889.176 143.904 889.176C143.168 889.208 142.528 889.128 141.984 888.936C141.408 888.744 141.056 888.376 140.928 887.832C140.832 887.288 140.784 886.744 140.784 886.2C140.56 881.976 140.448 877.848 140.448 873.816C140.48 869.752 140.496 865.576 140.496 861.288C140.432 861.448 140.208 861.592 139.824 861.72C139.472 861.848 139.056 861.96 138.576 862.056C138.128 862.152 137.696 862.232 137.28 862.296C136.864 862.36 136.592 862.392 136.464 862.392C135.632 862.488 134.864 862.408 134.16 862.152C133.488 861.864 133.104 861.224 133.008 860.232C132.88 859.208 133.104 858.408 133.68 857.832C134.288 857.256 135.056 856.824 135.984 856.536C137.008 856.184 138 855.832 138.96 855.48C139.952 855.096 140.96 854.76 141.984 854.472ZM161.718 854.472C161.942 854.408 162.15 854.36 162.342 854.328C162.534 854.264 162.726 854.216 162.918 854.184C163.142 854.12 163.414 854.088 163.734 854.088C164.086 854.056 164.406 854.072 164.694 854.136C165.014 854.168 165.302 854.264 165.558 854.424C165.846 854.552 166.054 854.76 166.182 855.048C166.31 855.368 166.39 855.752 166.422 856.2C166.486 856.616 166.518 857.048 166.518 857.496C166.518 857.944 166.502 858.392 166.47 858.84C166.47 859.256 166.47 859.64 166.47 859.992V884.52C166.47 884.872 166.47 885.224 166.47 885.576C166.502 885.96 166.502 886.344 166.47 886.728C166.438 887.112 166.342 887.464 166.182 887.784C166.022 888.136 165.782 888.424 165.462 888.648C165.014 889 164.406 889.176 163.638 889.176C162.902 889.208 162.262 889.128 161.718 888.936C161.142 888.744 160.79 888.376 160.662 887.832C160.566 887.288 160.518 886.744 160.518 886.2C160.294 881.976 160.182 877.848 160.182 873.816C160.214 869.752 160.23 865.576 160.23 861.288C160.166 861.448 159.942 861.592 159.558 861.72C159.206 861.848 158.79 861.96 158.31 862.056C157.862 862.152 157.43 862.232 157.014 862.296C156.598 862.36 156.326 862.392 156.198 862.392C155.366 862.488 154.598 862.408 153.894 862.152C153.222 861.864 152.838 861.224 152.742 860.232C152.614 859.208 152.838 858.408 153.414 857.832C154.022 857.256 154.79 856.824 155.718 856.536C156.742 856.184 157.734 855.832 158.694 855.48C159.686 855.096 160.694 854.76 161.718 854.472ZM193.453 883.032C193.549 883.192 193.629 883.368 193.693 883.56C193.789 883.72 193.869 883.912 193.933 884.136C194.029 884.488 194.093 884.872 194.125 885.288C194.157 885.704 194.061 886.136 193.837 886.584C193.325 887.576 192.621 888.104 191.725 888.168H191.677C191.101 888.168 190.589 887.976 190.141 887.592C189.725 887.208 189.277 886.744 188.797 886.2C188.317 885.688 187.885 885.176 187.501 884.664C187.117 884.152 186.765 883.688 186.445 883.272C186.413 883.208 186.365 883.144 186.301 883.08C186.269 882.984 186.221 882.872 186.157 882.744C185.357 881.528 184.765 880.68 184.381 880.2C183.997 879.72 183.773 879.464 183.709 879.432C183.645 879.496 183.485 879.672 183.229 879.96C183.005 880.216 182.861 880.376 182.797 880.44C182.733 880.536 182.669 880.632 182.605 880.728C182.541 880.792 182.477 880.856 182.413 880.92C182.125 881.24 181.885 881.576 181.693 881.928C181.533 882.248 181.325 882.584 181.069 882.936C180.813 883.288 180.541 883.624 180.253 883.944C179.997 884.264 179.725 884.584 179.437 884.904C179.309 885.032 179.181 885.192 179.053 885.384C178.573 885.928 178.061 886.456 177.517 886.968C177.005 887.48 176.397 887.864 175.693 888.12C175.405 888.248 175.085 888.312 174.733 888.312C173.997 888.312 173.341 888.024 172.765 887.448C172.221 886.904 171.949 886.232 171.949 885.432C171.981 884.856 172.125 884.312 172.381 883.8C172.669 883.288 172.941 882.808 173.197 882.36L173.293 882.168C173.389 882.008 173.485 881.864 173.581 881.736C173.677 881.608 173.773 881.48 173.869 881.352C173.933 881.256 173.981 881.176 174.013 881.112C174.077 881.016 174.141 880.936 174.205 880.872C174.589 880.296 174.925 879.832 175.213 879.48C175.277 879.416 175.309 879.368 175.309 879.336C175.341 879.272 175.389 879.208 175.453 879.144C175.517 879.016 175.581 878.936 175.645 878.904L175.741 878.76C175.869 878.6 175.981 878.456 176.077 878.328C176.173 878.168 176.269 878.008 176.365 877.848C176.589 877.496 176.781 877.176 176.941 876.888C177.133 876.568 177.309 876.264 177.469 875.976C177.661 875.624 177.853 875.288 178.045 874.968C178.237 874.616 178.461 874.28 178.717 873.96C178.877 873.704 179.037 873.448 179.197 873.192C179.389 872.936 179.565 872.68 179.725 872.424L179.917 872.136C180.141 871.784 180.301 871.48 180.397 871.224C180.525 870.936 180.605 870.616 180.637 870.264C180.701 869.752 180.733 869.256 180.733 868.776C180.733 868.264 180.733 867.72 180.733 867.144V859.224C180.733 858.904 180.733 858.6 180.733 858.312C180.733 858.024 180.749 857.72 180.781 857.4C180.781 857.048 180.813 856.696 180.877 856.344C180.941 855.992 181.021 855.672 181.117 855.384C181.277 854.968 181.485 854.552 181.741 854.136C181.901 853.88 182.125 853.688 182.413 853.56C182.733 853.432 183.069 853.336 183.421 853.272L183.517 853.224C183.773 853.16 183.997 853.144 184.189 853.176C184.413 853.176 184.653 853.224 184.909 853.32C185.229 853.448 185.469 853.592 185.629 853.752C185.789 853.88 185.917 854.056 186.013 854.28C186.109 854.504 186.205 854.744 186.301 855C186.589 855.608 186.781 856.392 186.877 857.352C187.005 858.696 187.085 860.12 187.117 861.624C187.149 863.096 187.165 864.504 187.165 865.848C187.197 866.68 187.213 867.512 187.213 868.344C187.213 869.144 187.245 869.944 187.309 870.744C187.341 871.448 187.517 872.104 187.837 872.712C188.189 873.32 188.541 873.928 188.893 874.536C189.245 875.24 189.613 875.944 189.997 876.648C190.381 877.32 190.781 877.992 191.197 878.664C191.357 878.984 191.517 879.304 191.677 879.624C191.869 879.912 192.061 880.216 192.253 880.536C192.317 880.696 192.381 880.84 192.445 880.968C192.541 881.096 192.621 881.224 192.685 881.352C192.749 881.512 192.829 881.688 192.925 881.88C193.021 882.04 193.101 882.2 193.165 882.36L193.309 882.744L193.453 883.032ZM205.549 887.064C205.485 887.448 205.437 887.816 205.405 888.168C205.373 888.552 205.293 888.936 205.165 889.32C205.101 889.448 205.053 889.56 205.021 889.656C204.989 889.752 204.941 889.864 204.877 889.992C204.653 890.44 204.365 890.792 204.013 891.048C203.277 891.496 202.461 891.608 201.565 891.384C201.053 891.288 200.637 891.096 200.317 890.808C200.029 890.552 199.805 890.216 199.645 889.8C199.517 889.416 199.405 889.032 199.309 888.648C199.245 888.264 199.213 887.928 199.213 887.64C199.213 887.352 199.213 887.192 199.213 887.16V857.496C199.213 857.112 199.213 856.696 199.213 856.248C199.213 855.8 199.245 855.352 199.309 854.904C199.373 854.456 199.469 854.04 199.597 853.656C199.725 853.272 199.901 852.968 200.125 852.744C200.477 852.392 200.845 852.184 201.229 852.12C201.613 852.024 202.029 851.976 202.477 851.976C203.021 851.976 203.517 852.136 203.965 852.456C204.445 852.744 204.781 853.16 204.973 853.704C205.261 854.376 205.421 855.08 205.453 855.816C205.485 856.552 205.517 857.288 205.549 858.024V858.264C205.613 860.728 205.629 863.256 205.597 865.848C205.565 868.44 205.549 870.888 205.549 873.192V885.336C205.549 885.624 205.549 885.912 205.549 886.2C205.581 886.488 205.581 886.776 205.549 887.064Z" fill="#A11838"/>
</g>
<g clip-path="url(#clip2_4_2)">
<rect x="44" y="554" width="470" height="180" fill="#757575"/>
<path d="M258.792 666.616C258.792 665.432 259.112 664.456 259.752 663.688C260.424 662.888 261.336 662.264 262.488 661.816C263.64 661.336 265 661 266.568 660.808C268.136 660.616 269.832 660.488 271.656 660.424V660.328L271.704 656.872C270.968 656.872 270.008 656.872 268.824 656.872C267.672 656.84 266.472 656.824 265.224 656.824C263.976 656.792 262.776 656.76 261.624 656.728C260.472 656.696 259.56 656.648 258.888 656.584C258.376 656.52 257.96 656.456 257.64 656.392C257.352 656.296 257 656.056 256.584 655.672C256.36 655.48 256.2 655.24 256.104 654.952C256.008 654.632 255.96 654.296 255.96 653.944C255.96 653.272 256.168 652.728 256.584 652.312C256.808 652.056 257.112 651.864 257.496 651.736C257.88 651.608 258.248 651.512 258.6 651.448C258.952 651.384 259.256 651.352 259.512 651.352C259.8 651.352 259.96 651.352 259.992 651.352H287.448C287.928 651.352 288.408 651.352 288.888 651.352C289.368 651.352 289.832 651.368 290.28 651.4C290.728 651.432 291.16 651.496 291.576 651.592C292.024 651.688 292.424 651.896 292.776 652.216C293.128 652.472 293.32 652.76 293.352 653.08C293.416 653.4 293.448 653.752 293.448 654.136C293.448 655.16 292.936 655.848 291.912 656.2C291.272 656.456 290.568 656.616 289.8 656.68C289.064 656.712 288.36 656.744 287.688 656.776C286.088 656.84 284.52 656.888 282.984 656.92C281.448 656.952 279.864 656.968 278.232 656.968L278.184 660.424C279.912 660.456 281.512 660.568 282.984 660.76C284.456 660.92 285.72 661.224 286.776 661.672C287.864 662.088 288.712 662.696 289.32 663.496C289.928 664.296 290.232 665.336 290.232 666.616C290.232 668.12 289.816 669.288 288.984 670.12C288.152 670.952 287.016 671.56 285.576 671.944C284.168 672.36 282.504 672.616 280.584 672.712C278.696 672.808 276.664 672.856 274.488 672.856C272.312 672.856 270.264 672.808 268.344 672.712C266.456 672.616 264.808 672.36 263.4 671.944C261.992 671.56 260.872 670.952 260.04 670.12C259.208 669.288 258.792 668.12 258.792 666.616ZM286.008 644.056C286.616 644.312 287.208 644.632 287.784 645.016C288.36 645.4 288.904 645.8 289.416 646.216C289.672 646.44 289.848 646.728 289.944 647.08C290.04 647.432 290.04 647.784 289.944 648.136C289.88 648.456 289.72 648.76 289.464 649.048C289.24 649.304 288.936 649.464 288.552 649.528C287.528 649.752 286.456 649.752 285.336 649.528C284.248 649.272 283.24 648.936 282.312 648.52C281.448 648.136 280.648 647.768 279.912 647.416C279.176 647.064 278.44 646.68 277.704 646.264C277.48 646.136 277.176 645.976 276.792 645.784C276.44 645.592 276.088 645.4 275.736 645.208C275.32 644.984 274.872 644.76 274.392 644.536C273.848 644.792 273.32 645.032 272.808 645.256C272.36 645.448 271.912 645.64 271.464 645.832C271.048 646.024 270.712 646.184 270.456 646.312C269.624 646.76 268.856 647.144 268.152 647.464C267.448 647.752 266.68 648.088 265.848 648.472C265.208 648.728 264.552 649.032 263.88 649.384C263.24 649.704 262.552 649.832 261.816 649.768C261.24 649.736 260.68 649.592 260.136 649.336C259.592 649.08 259.256 648.632 259.128 647.992C259.096 647.672 259.128 647.304 259.224 646.888C259.352 646.44 259.56 646.056 259.848 645.736C260.168 645.416 260.552 645.128 261 644.872L264.312 643.24C264.856 642.952 265.336 642.712 265.752 642.52C266.168 642.328 266.664 642.104 267.24 641.848C267.784 641.56 268.408 641.24 269.112 640.888C269.848 640.536 270.536 640.248 271.176 640.024V638.536H266.088C265.576 638.536 265.128 638.552 264.744 638.584C264.392 638.584 263.976 638.552 263.496 638.488C263.144 638.424 262.76 638.392 262.344 638.392C261.928 638.392 261.544 638.312 261.192 638.152C260.84 637.96 260.552 637.656 260.328 637.24C260.136 636.92 260.024 636.568 259.992 636.184C259.96 635.768 260.024 635.384 260.184 635.032C260.44 634.52 260.856 634.136 261.432 633.88C262.008 633.624 262.6 633.496 263.208 633.496H264.312C264.824 633.528 265.192 633.544 265.416 633.544C265.672 633.512 266.056 633.496 266.568 633.496H283.176C283.688 633.496 284.28 633.48 284.952 633.448C285.624 633.416 286.264 633.464 286.872 633.592C287.512 633.688 288.072 633.896 288.552 634.216C289.064 634.536 289.4 635.032 289.56 635.704C289.752 636.472 289.608 637.064 289.128 637.48C288.68 637.896 288.088 638.2 287.352 638.392C286.648 638.552 285.896 638.648 285.096 638.68C284.296 638.68 283.64 638.664 283.128 638.632C282.616 638.6 282.072 638.584 281.496 638.584C280.952 638.584 280.424 638.584 279.912 638.584C279.336 638.584 278.76 638.6 278.184 638.632V640.12C278.376 640.216 278.568 640.328 278.76 640.456C278.984 640.552 279.208 640.632 279.432 640.696C279.624 640.792 279.8 640.888 279.96 640.984C280.152 641.08 280.344 641.176 280.536 641.272C280.856 641.432 281.16 641.592 281.448 641.752C281.768 641.88 282.088 642.024 282.408 642.184C283.016 642.472 283.608 642.776 284.184 643.096C284.792 643.416 285.4 643.736 286.008 644.056ZM283.896 666.616C283.896 666.104 283.608 665.736 283.032 665.512C282.488 665.288 281.752 665.144 280.824 665.08C279.928 665.016 278.92 665 277.8 665.032C276.68 665.064 275.576 665.08 274.488 665.08C273.4 665.08 272.312 665.064 271.224 665.032C270.136 665 269.16 665.016 268.296 665.08C267.432 665.144 266.728 665.288 266.184 665.512C265.672 665.736 265.416 666.104 265.416 666.616C265.416 667.064 265.672 667.4 266.184 667.624C266.728 667.848 267.432 667.992 268.296 668.056C269.16 668.152 270.136 668.184 271.224 668.152C272.312 668.152 273.4 668.152 274.488 668.152C275.576 668.152 276.68 668.184 277.8 668.248C278.92 668.312 279.928 668.312 280.824 668.248C281.752 668.216 282.488 668.088 283.032 667.864C283.608 667.64 283.896 667.224 283.896 666.616ZM301.622 642.376C301.078 642.376 300.454 642.312 299.75 642.184C299.078 642.024 298.55 641.656 298.166 641.08C297.942 640.696 297.798 640.264 297.734 639.784C297.67 639.304 297.702 638.84 297.83 638.392C298.086 637.496 298.678 636.84 299.606 636.424C299.798 636.36 299.99 636.296 300.182 636.232C300.374 636.168 300.582 636.104 300.806 636.04C301.414 635.88 301.91 635.8 302.294 635.8C302.71 635.768 303.238 635.736 303.878 635.704C304.166 635.704 304.39 635.704 304.55 635.704C304.71 635.704 304.918 635.688 305.174 635.656C305.43 635.656 305.606 635.656 305.702 635.656C305.798 635.624 305.99 635.608 306.278 635.608C306.438 635.608 306.838 635.608 307.478 635.608C308.118 635.608 308.854 635.608 309.686 635.608C310.55 635.608 311.462 635.624 312.422 635.656C313.382 635.656 314.278 635.656 315.11 635.656C315.974 635.656 316.71 635.672 317.318 635.704C317.958 635.704 318.358 635.704 318.518 635.704C318.998 635.736 319.494 635.752 320.006 635.752C320.518 635.752 321.03 635.752 321.542 635.752C322.118 635.752 322.678 635.768 323.222 635.8C323.798 635.832 324.374 635.88 324.95 635.944C325.206 636.008 325.462 636.056 325.718 636.088C326.006 636.12 326.278 636.216 326.534 636.376C326.886 636.568 327.158 636.856 327.35 637.24C327.542 637.592 327.686 637.992 327.782 638.44C327.91 638.856 327.99 639.288 328.022 639.736C328.054 640.184 328.07 640.584 328.07 640.936C328.07 641.384 328.07 641.816 328.07 642.232C328.102 642.648 328.118 643.08 328.118 643.528C328.15 644.136 328.166 644.84 328.166 645.64C328.166 646.44 328.15 647.144 328.118 647.752C328.086 649.064 328.054 650.36 328.022 651.64C328.022 652.888 328.022 654.168 328.022 655.48C328.022 655.992 327.974 656.504 327.878 657.016C327.782 657.496 327.574 657.96 327.254 658.408C326.902 658.856 326.47 659.176 325.958 659.368C325.446 659.528 324.918 659.528 324.374 659.368C323.734 659.208 323.254 658.936 322.934 658.552C322.646 658.136 322.422 657.672 322.262 657.16C322.134 656.616 322.054 656.056 322.022 655.48C321.99 654.872 321.942 654.312 321.878 653.8C321.686 652.456 321.59 651.144 321.59 649.864C321.622 649.128 321.606 648.328 321.542 647.464C321.478 646.568 321.446 645.768 321.446 645.064C321.446 644.52 321.414 644.008 321.35 643.528C321.286 643.016 321.03 642.632 320.582 642.376C320.39 642.28 320.166 642.232 319.91 642.232C319.654 642.232 319.35 642.232 318.998 642.232H317.99C317.83 642.264 317.67 642.28 317.51 642.28C317.35 642.248 317.19 642.232 317.03 642.232H311.942C311.302 642.232 310.742 642.264 310.262 642.328C309.814 642.36 309.27 642.376 308.63 642.376C307.99 642.376 307.414 642.376 306.902 642.376C306.422 642.344 305.862 642.36 305.222 642.424C304.966 642.456 304.758 642.456 304.598 642.424C304.47 642.392 304.278 642.376 304.022 642.376H301.622ZM328.31 663.592C328.406 663.624 328.502 663.64 328.598 663.64C328.694 663.608 328.79 663.592 328.886 663.592C329.43 663.656 329.926 663.768 330.374 663.928C330.854 664.056 331.318 664.312 331.766 664.696C332.214 665.144 332.438 665.704 332.438 666.376C332.438 666.728 332.374 667.096 332.246 667.48C332.15 667.896 332.006 668.216 331.814 668.44C331.558 668.696 331.238 668.888 330.854 669.016C330.47 669.144 330.102 669.224 329.75 669.256C329.398 669.32 329.078 669.352 328.79 669.352C328.534 669.352 328.39 669.352 328.358 669.352H301.478C301.318 669.352 301.158 669.352 300.998 669.352C300.838 669.384 300.678 669.4 300.518 669.4C299.846 669.432 299.126 669.416 298.358 669.352C297.59 669.32 296.934 669.08 296.39 668.632C295.718 668.024 295.382 667.336 295.382 666.568C295.382 666.088 295.526 665.592 295.814 665.08C296.102 664.568 296.486 664.216 296.966 664.024C297.606 663.768 298.262 663.64 298.934 663.64C299.638 663.64 300.342 663.624 301.046 663.592H301.286C301.958 663.592 302.582 663.592 303.158 663.592C303.734 663.56 304.294 663.544 304.838 663.544C305.382 663.544 305.942 663.56 306.518 663.592C307.094 663.592 307.75 663.592 308.486 663.592L308.438 653.272C308.438 652.984 308.486 652.68 308.582 652.36C308.646 652.104 308.758 651.832 308.918 651.544C309.11 651.256 309.382 650.984 309.734 650.728C310.15 650.44 310.646 650.264 311.222 650.2C311.798 650.136 312.358 650.2 312.902 650.392C313.446 650.552 313.91 650.84 314.294 651.256C314.678 651.64 314.87 652.12 314.87 652.696L314.966 663.592C316.758 663.592 318.47 663.576 320.102 663.544C321.734 663.512 323.382 663.528 325.046 663.592C325.622 663.624 326.182 663.624 326.726 663.592C327.27 663.528 327.798 663.528 328.31 663.592ZM336.255 666.232C336.255 664.888 336.671 663.784 337.503 662.92C338.335 662.024 339.455 661.336 340.863 660.856C342.271 660.344 343.919 659.992 345.807 659.8C347.727 659.608 349.775 659.512 351.951 659.512C354.127 659.512 356.159 659.576 358.047 659.704C359.967 659.832 361.631 660.136 363.039 660.616C364.479 661.064 365.615 661.736 366.447 662.632C367.279 663.528 367.695 664.728 367.695 666.232C367.695 667.736 367.279 668.92 366.447 669.784C365.615 670.68 364.479 671.368 363.039 671.848C361.631 672.328 359.967 672.632 358.047 672.76C356.159 672.92 354.127 673 351.951 673C349.775 673 347.727 672.92 345.807 672.76C343.919 672.632 342.271 672.328 340.863 671.848C339.455 671.368 338.335 670.68 337.503 669.784C336.671 668.92 336.255 667.736 336.255 666.232ZM341.343 648.76C340.959 648.76 340.511 648.744 339.999 648.712C339.487 648.68 338.991 648.6 338.511 648.472C338.063 648.344 337.647 648.152 337.263 647.896C336.911 647.64 336.671 647.288 336.543 646.84C336.447 646.488 336.367 646.216 336.303 646.024C336.271 645.832 336.223 645.656 336.159 645.496C336.127 645.336 336.095 645.16 336.063 644.968C336.063 644.776 336.063 644.488 336.063 644.104V639.928C336.063 639.96 336.047 639.848 336.015 639.592C336.015 639.336 336.031 639.032 336.063 638.68C336.095 638.296 336.159 637.896 336.255 637.48C336.383 637.032 336.543 636.648 336.735 636.328C336.927 636.008 337.231 635.752 337.647 635.56C338.095 635.368 338.527 635.224 338.943 635.128C339.391 635.032 339.791 634.984 340.143 634.984C340.495 634.952 340.719 634.936 340.815 634.936H361.935C362.607 634.936 363.295 634.936 363.999 634.936C364.735 634.936 365.423 635.064 366.063 635.32C366.607 635.544 366.975 635.912 367.167 636.424C367.359 636.936 367.439 637.48 367.407 638.056C367.343 638.6 367.135 639.064 366.783 639.448C366.463 639.832 366.031 640.104 365.487 640.264C364.975 640.392 364.079 640.456 362.799 640.456H361.743C361.583 640.456 361.439 640.44 361.311 640.408H344.319C344.159 640.376 343.919 640.376 343.599 640.408C343.311 640.408 343.087 640.456 342.927 640.552C342.831 640.584 342.767 640.728 342.735 640.984C342.703 641.208 342.687 641.48 342.687 641.8C342.687 642.088 342.687 642.36 342.687 642.616C342.719 642.872 342.751 643.048 342.783 643.144C342.911 643.368 343.183 643.496 343.599 643.528C344.015 643.528 344.399 643.512 344.751 643.48C345.135 643.48 345.631 643.48 346.239 643.48C346.847 643.48 347.679 643.48 348.735 643.48C349.791 643.48 351.135 643.48 352.767 643.48C354.399 643.48 356.415 643.48 358.815 643.48H362.367C363.167 643.48 363.887 643.496 364.527 643.528C365.199 643.528 365.807 643.656 366.351 643.912C366.991 644.2 367.423 644.744 367.647 645.544C367.807 646.344 367.647 647.064 367.167 647.704C366.655 648.344 366.095 648.68 365.487 648.712C364.911 648.744 364.271 648.776 363.567 648.808C363.247 648.808 362.607 648.824 361.647 648.856C360.687 648.856 359.631 648.872 358.479 648.904C357.359 648.904 356.271 648.904 355.215 648.904C354.159 648.904 353.375 648.904 352.863 648.904C352.319 648.904 351.519 648.904 350.463 648.904C349.407 648.904 348.287 648.904 347.103 648.904C345.919 648.872 344.799 648.856 343.743 648.856C342.687 648.824 341.887 648.792 341.343 648.76ZM365.007 651.688C365.551 651.688 366.127 651.704 366.735 651.736C367.343 651.768 367.903 651.88 368.415 652.072C368.927 652.232 369.343 652.504 369.663 652.888C370.015 653.24 370.223 653.752 370.287 654.424C370.319 654.776 370.239 655.096 370.047 655.384C369.887 655.672 369.647 655.96 369.327 656.248C369.071 656.472 368.751 656.648 368.367 656.776C368.015 656.872 367.631 656.952 367.215 657.016C366.831 657.048 366.431 657.064 366.015 657.064C365.631 657.064 365.279 657.048 364.959 657.016C364.895 657.016 364.815 657.016 364.719 657.016C364.623 656.984 364.319 656.968 363.807 656.968C363.295 656.968 362.511 656.968 361.455 656.968C360.399 656.968 358.879 656.968 356.895 656.968C354.943 656.968 352.431 656.968 349.359 656.968C346.319 656.968 342.575 656.968 338.127 656.968C338.095 656.968 337.951 656.968 337.695 656.968C337.439 656.968 337.135 656.936 336.783 656.872C336.463 656.808 336.127 656.728 335.775 656.632C335.423 656.504 335.135 656.312 334.911 656.056C334.527 655.64 334.335 655.144 334.335 654.568C334.335 654.216 334.383 653.848 334.479 653.464C334.607 653.08 334.767 652.808 334.959 652.648C335.375 652.296 335.839 652.056 336.351 651.928C336.895 651.768 337.647 651.688 338.607 651.688H365.007ZM361.359 666.232C361.359 665.72 361.071 665.336 360.495 665.08C359.951 664.792 359.215 664.584 358.287 664.456C357.391 664.328 356.383 664.264 355.263 664.264C354.143 664.232 353.039 664.216 351.951 664.216C350.863 664.216 349.775 664.232 348.687 664.264C347.599 664.264 346.623 664.328 345.759 664.456C344.895 664.584 344.191 664.792 343.647 665.08C343.135 665.336 342.879 665.72 342.879 666.232C342.879 666.68 343.135 667.032 343.647 667.288C344.191 667.576 344.895 667.784 345.759 667.912C346.623 668.072 347.599 668.168 348.687 668.2C349.775 668.264 350.863 668.296 351.951 668.296C353.039 668.296 354.143 668.296 355.263 668.296C356.383 668.328 357.391 668.28 358.287 668.152C359.215 668.056 359.951 667.864 360.495 667.576C361.071 667.288 361.359 666.84 361.359 666.232ZM405.233 638.44C405.201 638.696 405.185 638.904 405.185 639.064C405.185 639.224 405.185 639.368 405.185 639.496V642.088C405.185 642.568 405.185 643.064 405.185 643.576C405.185 644.088 405.201 644.616 405.233 645.16V648.28C405.201 648.824 405.185 649.304 405.185 649.72C405.185 650.136 405.153 650.552 405.089 650.968C404.993 651.864 404.689 652.584 404.177 653.128C403.697 653.672 402.993 654.008 402.065 654.136C401.777 654.2 401.505 654.248 401.249 654.28C401.025 654.28 400.785 654.28 400.529 654.28H399.089C398.801 654.28 398.481 654.296 398.129 654.328C397.777 654.328 397.345 654.328 396.833 654.328C396.321 654.328 395.809 654.328 395.297 654.328C394.785 654.328 394.273 654.312 393.761 654.28H380.945C380.593 654.28 380.241 654.28 379.889 654.28C379.569 654.248 379.265 654.2 378.977 654.136C378.625 654.136 378.289 654.088 377.969 653.992C377.649 653.864 377.377 653.688 377.153 653.464C376.833 653.208 376.545 652.808 376.289 652.264C376.193 652.008 376.097 651.752 376.001 651.496C375.937 651.24 375.889 650.984 375.857 650.728C375.793 650.536 375.729 650.312 375.665 650.056C375.633 649.8 375.617 649.576 375.617 649.384V639.928C375.617 639.64 375.585 639.336 375.521 639.016C375.457 638.664 375.425 638.344 375.425 638.056C375.393 637.704 375.393 637.384 375.425 637.096C375.457 636.776 375.553 636.456 375.713 636.136C375.777 635.752 375.873 635.432 376.001 635.176C376.129 634.888 376.305 634.712 376.529 634.648C376.689 634.488 376.929 634.376 377.249 634.312C377.569 634.248 377.921 634.184 378.305 634.12C378.561 634.12 378.849 634.152 379.169 634.216C379.489 634.28 379.793 634.344 380.081 634.408C380.849 634.664 381.249 635.08 381.281 635.656V637.768C381.281 638.056 381.281 638.328 381.281 638.584C381.313 638.808 381.329 639.032 381.329 639.256C381.329 639.512 381.345 639.752 381.377 639.976C381.441 640.2 381.649 640.312 382.001 640.312H398.801C398.865 640.312 398.961 640.296 399.089 640.264C399.249 640.232 399.393 640.2 399.521 640.168V639.496C399.585 639.24 399.617 639.016 399.617 638.824C399.617 638.632 399.617 638.44 399.617 638.248V636.232C399.617 635.944 399.633 635.672 399.665 635.416C399.729 635.128 399.841 634.904 400.001 634.744C400.097 634.584 400.241 634.456 400.433 634.36C400.657 634.264 400.913 634.184 401.201 634.12C401.361 634.088 401.649 634.072 402.065 634.072H403.025C403.377 634.072 403.681 634.136 403.937 634.264C404.609 634.488 404.993 634.888 405.089 635.464C405.153 635.72 405.185 635.976 405.185 636.232C405.185 636.456 405.201 636.68 405.233 636.904V638.44ZM404.561 658.216C404.881 658.216 405.169 658.248 405.425 658.312C405.681 658.376 405.937 658.472 406.193 658.6C406.609 658.76 406.993 659.048 407.345 659.464C407.601 659.816 407.729 660.36 407.729 661.096C407.729 661.512 407.681 661.864 407.585 662.152C407.489 662.408 407.265 662.664 406.913 662.92C406.401 663.336 405.793 663.592 405.089 663.688C404.225 663.88 403.409 663.976 402.641 663.976C402.225 663.976 401.841 664.008 401.489 664.072C401.169 664.104 400.881 664.12 400.625 664.12H393.185C393.249 664.568 393.281 665.128 393.281 665.8C393.313 666.44 393.329 666.936 393.329 667.288C393.361 667.96 393.313 668.744 393.185 669.64C393.089 670.216 392.913 670.76 392.657 671.272C392.561 671.816 392.225 672.28 391.649 672.664C391.393 672.856 391.105 672.984 390.785 673.048C390.497 673.144 390.209 673.192 389.921 673.192C389.217 673.192 388.625 673.016 388.145 672.664C387.697 672.472 387.393 672.12 387.233 671.608C387.105 671.32 386.993 671.064 386.897 670.84C386.833 670.648 386.801 670.44 386.801 670.216C386.737 670.056 386.705 669.88 386.705 669.688C386.705 669.496 386.705 669.304 386.705 669.112V664.12H376.529C376.113 664.12 375.729 664.088 375.377 664.024C375.025 663.96 374.705 663.896 374.417 663.832C373.681 663.576 373.137 663.16 372.785 662.584C372.561 662.296 372.417 662.008 372.353 661.72C372.289 661.432 372.257 661.112 372.257 660.76C372.257 660.152 372.497 659.624 372.977 659.176C373.233 658.92 373.521 658.728 373.841 658.6C374.097 658.504 374.289 658.44 374.417 658.408C374.577 658.376 374.769 658.36 374.993 658.36C375.185 658.296 375.361 658.264 375.521 658.264C375.681 658.264 375.841 658.264 376.001 658.264H376.385L402.929 658.12C403.185 658.12 403.457 658.12 403.745 658.12C404.033 658.12 404.305 658.152 404.561 658.216ZM399.425 647.944C399.489 647.848 399.521 647.608 399.521 647.224C399.521 647.064 399.521 646.92 399.521 646.792C399.521 646.664 399.489 646.552 399.425 646.456C399.425 646.168 399.409 645.992 399.377 645.928C399.217 645.768 399.057 645.672 398.897 645.64C398.769 645.576 398.625 645.512 398.465 645.448H387.953L385.985 645.4H384.977C384.817 645.4 384.657 645.4 384.497 645.4C384.369 645.4 384.193 645.368 383.969 645.304C383.745 645.304 383.521 645.32 383.297 645.352C383.105 645.352 382.913 645.352 382.721 645.352C382.337 645.352 382.001 645.448 381.713 645.64C381.617 645.736 381.521 645.864 381.425 646.024C381.361 646.184 381.361 646.392 381.425 646.648V648.184C381.489 648.312 381.521 648.392 381.521 648.424V648.472C381.521 648.696 381.649 648.904 381.905 649.096C382.065 649.16 382.193 649.224 382.289 649.288C382.417 649.32 382.561 649.336 382.721 649.336C383.041 649.4 383.361 649.4 383.681 649.336H396.017C396.113 649.336 396.225 649.352 396.353 649.384C396.513 649.384 396.673 649.368 396.833 649.336H397.697C397.761 649.336 397.825 649.336 397.889 649.336C397.953 649.336 398.065 649.352 398.225 649.384H398.801C398.865 649.352 398.945 649.336 399.041 649.336C399.137 649.304 399.217 649.256 399.281 649.192C399.345 649.064 399.377 648.968 399.377 648.904C399.409 648.84 399.425 648.728 399.425 648.568V647.944Z" fill="white"/>
<path d="M144.96 671.224C143.488 671.224 142.064 671.048 140.688 670.696C139.344 670.376 138.112 669.72 136.992 668.728C136.576 668.344 136.176 667.896 135.792 667.384C135.44 666.904 135.184 666.424 135.024 665.944C134.896 665.432 134.912 664.936 135.072 664.456C135.232 663.944 135.632 663.496 136.272 663.112C136.688 662.856 137.056 662.728 137.376 662.728C137.728 662.728 138.048 662.808 138.336 662.968C138.656 663.128 138.944 663.352 139.2 663.64C139.488 663.896 139.776 664.152 140.064 664.408C140.8 665.016 141.584 665.416 142.416 665.608C143.28 665.8 144.176 665.896 145.104 665.896C146.16 665.896 147.136 665.64 148.032 665.128C148.928 664.616 149.68 663.944 150.288 663.112C150.928 662.28 151.392 661.336 151.68 660.28C151.968 659.224 152.032 658.168 151.872 657.112C150.944 657.656 149.888 658.088 148.704 658.408C147.52 658.696 146.384 658.84 145.296 658.84C143.568 658.84 142 658.6 140.592 658.12C139.216 657.608 138.032 656.904 137.04 656.008C136.048 655.08 135.28 653.96 134.736 652.648C134.192 651.336 133.92 649.88 133.92 648.28C133.92 646.616 134.208 645.08 134.784 643.672C135.36 642.232 136.176 641 137.232 639.976C138.288 638.92 139.552 638.104 141.024 637.528C142.496 636.92 144.128 636.616 145.92 636.616C147.968 636.616 149.68 636.92 151.056 637.528C152.464 638.104 153.744 638.984 154.896 640.168C156.08 641.416 156.944 643.048 157.488 645.064C158.064 647.08 158.352 649.736 158.352 653.032C158.352 655.72 158.048 658.184 157.44 660.424C156.864 662.664 156.016 664.584 154.896 666.184C153.776 667.784 152.368 669.016 150.672 669.88C149.008 670.776 147.104 671.224 144.96 671.224ZM146.064 642.424C145.488 642.392 144.912 642.424 144.336 642.52C143.792 642.584 143.296 642.696 142.848 642.856C141.984 643.208 141.296 643.784 140.784 644.584C140.272 645.352 139.952 646.2 139.824 647.128C139.696 648.056 139.76 648.984 140.016 649.912C140.304 650.84 140.8 651.608 141.504 652.216C142.112 652.792 142.832 653.176 143.664 653.368C144.496 653.56 145.328 653.608 146.16 653.512C147.024 653.416 147.84 653.176 148.608 652.792C149.376 652.408 150.016 651.912 150.528 651.304C151.04 650.696 151.376 650.056 151.536 649.384C151.728 648.68 151.76 647.992 151.632 647.32C151.536 646.616 151.312 645.96 150.96 645.352C150.608 644.712 150.176 644.152 149.664 643.672C149.216 643.32 148.672 643.048 148.032 642.856C147.424 642.632 146.768 642.488 146.064 642.424ZM182.25 665.032C182.346 665.192 182.426 665.368 182.49 665.56C182.586 665.72 182.666 665.912 182.73 666.136C182.826 666.488 182.89 666.872 182.922 667.288C182.954 667.704 182.858 668.136 182.634 668.584C182.122 669.576 181.418 670.104 180.522 670.168H180.474C179.898 670.168 179.386 669.976 178.938 669.592C178.522 669.208 178.074 668.744 177.594 668.2C177.114 667.688 176.682 667.176 176.298 666.664C175.914 666.152 175.562 665.688 175.242 665.272C175.21 665.208 175.162 665.144 175.098 665.08C175.066 664.984 175.018 664.872 174.954 664.744C174.154 663.528 173.562 662.68 173.178 662.2C172.794 661.72 172.57 661.464 172.506 661.432C172.442 661.496 172.282 661.672 172.026 661.96C171.802 662.216 171.658 662.376 171.594 662.44C171.53 662.536 171.466 662.632 171.402 662.728C171.338 662.792 171.274 662.856 171.21 662.92C170.922 663.24 170.682 663.576 170.49 663.928C170.33 664.248 170.122 664.584 169.866 664.936C169.61 665.288 169.338 665.624 169.05 665.944C168.794 666.264 168.522 666.584 168.234 666.904C168.106 667.032 167.978 667.192 167.85 667.384C167.37 667.928 166.858 668.456 166.314 668.968C165.802 669.48 165.194 669.864 164.49 670.12C164.202 670.248 163.882 670.312 163.53 670.312C162.794 670.312 162.138 670.024 161.562 669.448C161.018 668.904 160.746 668.232 160.746 667.432C160.778 666.856 160.922 666.312 161.178 665.8C161.466 665.288 161.738 664.808 161.994 664.36L162.09 664.168C162.186 664.008 162.282 663.864 162.378 663.736C162.474 663.608 162.57 663.48 162.666 663.352C162.73 663.256 162.778 663.176 162.81 663.112C162.874 663.016 162.938 662.936 163.002 662.872C163.386 662.296 163.722 661.832 164.01 661.48C164.074 661.416 164.106 661.368 164.106 661.336C164.138 661.272 164.186 661.208 164.25 661.144C164.314 661.016 164.378 660.936 164.442 660.904L164.538 660.76C164.666 660.6 164.778 660.456 164.874 660.328C164.97 660.168 165.066 660.008 165.162 659.848C165.386 659.496 165.578 659.176 165.738 658.888C165.93 658.568 166.106 658.264 166.266 657.976C166.458 657.624 166.65 657.288 166.842 656.968C167.034 656.616 167.258 656.28 167.514 655.96C167.674 655.704 167.834 655.448 167.994 655.192C168.186 654.936 168.362 654.68 168.522 654.424L168.714 654.136C168.938 653.784 169.098 653.48 169.194 653.224C169.322 652.936 169.402 652.616 169.434 652.264C169.498 651.752 169.53 651.256 169.53 650.776C169.53 650.264 169.53 649.72 169.53 649.144V641.224C169.53 640.904 169.53 640.6 169.53 640.312C169.53 640.024 169.546 639.72 169.578 639.4C169.578 639.048 169.61 638.696 169.674 638.344C169.738 637.992 169.818 637.672 169.914 637.384C170.074 636.968 170.282 636.552 170.538 636.136C170.698 635.88 170.922 635.688 171.21 635.56C171.53 635.432 171.866 635.336 172.218 635.272L172.314 635.224C172.57 635.16 172.794 635.144 172.986 635.176C173.21 635.176 173.45 635.224 173.706 635.32C174.026 635.448 174.266 635.592 174.426 635.752C174.586 635.88 174.714 636.056 174.81 636.28C174.906 636.504 175.002 636.744 175.098 637C175.386 637.608 175.578 638.392 175.674 639.352C175.802 640.696 175.882 642.12 175.914 643.624C175.946 645.096 175.962 646.504 175.962 647.848C175.994 648.68 176.01 649.512 176.01 650.344C176.01 651.144 176.042 651.944 176.106 652.744C176.138 653.448 176.314 654.104 176.634 654.712C176.986 655.32 177.338 655.928 177.69 656.536C178.042 657.24 178.41 657.944 178.794 658.648C179.178 659.32 179.578 659.992 179.994 660.664C180.154 660.984 180.314 661.304 180.474 661.624C180.666 661.912 180.858 662.216 181.05 662.536C181.114 662.696 181.178 662.84 181.242 662.968C181.338 663.096 181.418 663.224 181.482 663.352C181.546 663.512 181.626 663.688 181.722 663.88C181.818 664.04 181.898 664.2 181.962 664.36L182.106 664.744L182.25 665.032ZM194.346 669.064C194.282 669.448 194.234 669.816 194.202 670.168C194.17 670.552 194.09 670.936 193.962 671.32C193.898 671.448 193.85 671.56 193.818 671.656C193.786 671.752 193.738 671.864 193.674 671.992C193.45 672.44 193.162 672.792 192.81 673.048C192.074 673.496 191.258 673.608 190.362 673.384C189.85 673.288 189.434 673.096 189.114 672.808C188.826 672.552 188.602 672.216 188.442 671.8C188.314 671.416 188.202 671.032 188.106 670.648C188.042 670.264 188.01 669.928 188.01 669.64C188.01 669.352 188.01 669.192 188.01 669.16V639.496C188.01 639.112 188.01 638.696 188.01 638.248C188.01 637.8 188.042 637.352 188.106 636.904C188.17 636.456 188.266 636.04 188.394 635.656C188.522 635.272 188.698 634.968 188.922 634.744C189.274 634.392 189.642 634.184 190.026 634.12C190.41 634.024 190.826 633.976 191.274 633.976C191.818 633.976 192.314 634.136 192.762 634.456C193.242 634.744 193.578 635.16 193.77 635.704C194.058 636.376 194.218 637.08 194.25 637.816C194.282 638.552 194.314 639.288 194.346 640.024V640.264C194.41 642.728 194.426 645.256 194.394 647.848C194.362 650.44 194.346 652.888 194.346 655.192V667.336C194.346 667.624 194.346 667.912 194.346 668.2C194.378 668.488 194.378 668.776 194.346 669.064Z" fill="#A11838"/>
</g>
<g clip-path="url(#clip3_4_2)">
<path d="M62.2171 356.16L74.969 336H417.45L470.279 362.789L514 384.96V516H44V384.96L62.2171 356.16Z" fill="#757575"/>
<path d="M283.416 417.368C283.992 417.624 284.648 417.992 285.384 418.472C286.152 418.952 286.76 419.48 287.208 420.056C288.456 421.688 289.176 423.24 289.368 424.712C289.592 426.184 289.608 427.608 289.416 428.984C289.16 431.64 287.912 433.688 285.672 435.128C283.432 436.536 280.376 437.24 276.504 437.24C275.48 437.24 274.36 437.256 273.144 437.288C271.96 437.288 270.76 437.24 269.544 437.144C268.36 437.048 267.192 436.872 266.04 436.616C264.92 436.36 263.912 435.96 263.016 435.416C261.256 434.392 260.056 433.096 259.416 431.528C258.776 429.928 258.456 428.232 258.456 426.44C258.456 424.712 258.792 423.176 259.464 421.832C260.168 420.488 261.32 419.272 262.92 418.184C263.592 417.736 264.488 417.352 265.608 417.032C266.728 416.68 267.896 416.408 269.112 416.216C270.36 415.992 271.576 415.848 272.76 415.784C273.944 415.688 274.936 415.672 275.736 415.736C277.24 415.832 278.568 415.992 279.72 416.216C280.872 416.44 282.104 416.824 283.416 417.368ZM286.632 440.648C287.144 440.616 287.672 440.632 288.216 440.696C288.792 440.728 289.32 440.84 289.8 441.032C290.28 441.224 290.664 441.512 290.952 441.896C291.272 442.28 291.432 442.808 291.432 443.48C291.432 444.28 291.208 444.888 290.76 445.304C290.312 445.688 289.768 445.976 289.128 446.168C288.52 446.328 287.848 446.424 287.112 446.456C286.408 446.456 285.8 446.456 285.288 446.456C285.128 446.456 284.984 446.472 284.856 446.504C284.728 446.504 284.584 446.504 284.424 446.504C284.456 447.432 284.472 448.408 284.472 449.432C284.504 450.456 284.472 451.368 284.376 452.168C284.28 452.776 284.12 453.352 283.896 453.896C283.672 454.472 283.288 454.936 282.744 455.288C282.264 455.608 281.704 455.768 281.064 455.768C280.424 455.768 279.848 455.624 279.336 455.336C278.92 455.08 278.6 454.712 278.376 454.232C278.184 453.752 278.04 453.288 277.944 452.84C277.88 452.488 277.864 452.104 277.896 451.688C277.928 451.272 277.928 450.888 277.896 450.536V446.504L269.592 446.456C269.624 447.448 269.656 448.424 269.688 449.384C269.72 450.376 269.672 451.288 269.544 452.12C269.448 452.728 269.288 453.304 269.064 453.848C268.84 454.424 268.456 454.888 267.912 455.24C267.432 455.56 266.872 455.72 266.232 455.72C265.592 455.72 265.016 455.576 264.504 455.288C264.088 455.032 263.768 454.664 263.544 454.184C263.352 453.704 263.208 453.24 263.112 452.792C263.048 452.44 263.032 452.056 263.064 451.64C263.096 451.224 263.096 450.84 263.064 450.488V446.456L260.184 446.36C259.448 446.36 258.744 446.296 258.072 446.168C257.4 446.008 256.872 445.608 256.488 444.968C256.136 444.424 255.96 443.832 255.96 443.192C255.992 442.552 256.232 441.992 256.68 441.512C256.904 441.256 257.208 441.064 257.592 440.936C257.976 440.808 258.344 440.712 258.696 440.648C259.08 440.584 259.4 440.552 259.656 440.552C259.944 440.552 260.104 440.552 260.136 440.552L286.632 440.648ZM282.12 429.56C282.344 428.856 282.472 428.12 282.504 427.352C282.536 426.552 282.408 425.816 282.12 425.144C281.832 424.44 281.336 423.848 280.632 423.368C279.96 422.856 279 422.536 277.752 422.408C276.856 422.312 275.736 422.216 274.392 422.12C273.048 422.024 271.736 422.056 270.456 422.216C269.176 422.376 268.04 422.744 267.048 423.32C266.056 423.864 265.464 424.728 265.272 425.912C265.176 426.616 265.176 427.288 265.272 427.928C265.4 428.536 265.672 429.096 266.088 429.608C266.504 430.12 267.096 430.552 267.864 430.904C268.632 431.224 269.592 431.432 270.744 431.528C271.608 431.624 272.6 431.72 273.72 431.816C274.84 431.88 275.944 431.88 277.032 431.816C278.152 431.72 279.16 431.512 280.056 431.192C280.984 430.84 281.672 430.296 282.12 429.56ZM308.63 418.04V416.36C308.63 415.944 308.678 415.56 308.774 415.208C308.838 414.888 308.95 414.568 309.11 414.248C309.302 413.896 309.574 413.592 309.926 413.336C310.342 413.048 310.838 412.888 311.414 412.856C311.99 412.824 312.534 412.904 313.046 413.096C313.59 413.288 314.054 413.592 314.438 414.008C314.822 414.424 315.014 414.92 315.014 415.496L315.062 418.04H318.854C319.078 418.104 319.43 418.12 319.91 418.088C320.39 418.056 320.742 418.04 320.966 418.04C321.542 418.04 322.15 418.04 322.79 418.04C323.43 418.008 324.022 418.056 324.566 418.184C325.11 418.312 325.574 418.568 325.958 418.952C326.342 419.336 326.566 419.928 326.63 420.728C326.726 421.592 326.598 422.248 326.246 422.696C325.926 423.112 325.478 423.416 324.902 423.608C324.358 423.768 323.75 423.848 323.078 423.848C322.438 423.816 321.846 423.8 321.302 423.8L315.446 423.752L315.494 425.096C315.494 425.352 315.494 425.576 315.494 425.768C315.494 425.96 315.526 426.184 315.59 426.44C315.686 426.792 315.83 427.096 316.022 427.352C316.246 427.576 316.47 427.816 316.694 428.072C317.174 428.616 317.718 429.16 318.326 429.704C318.934 430.216 319.558 430.744 320.198 431.288C320.87 431.8 321.51 432.312 322.118 432.824C322.758 433.336 323.334 433.848 323.846 434.36C324.454 435 324.998 435.672 325.478 436.376C325.99 437.08 326.118 437.928 325.862 438.92C325.67 439.56 325.35 439.992 324.902 440.216C324.454 440.408 323.958 440.472 323.414 440.408C322.902 440.312 322.358 440.152 321.782 439.928C321.238 439.672 320.774 439.416 320.39 439.16C318.854 438.168 317.43 437.112 316.118 435.992C314.806 434.872 313.494 433.704 312.182 432.488C312.15 432.456 311.878 432.616 311.366 432.968C310.886 433.32 310.31 433.768 309.638 434.312C308.966 434.824 308.262 435.368 307.526 435.944C306.822 436.488 306.214 436.968 305.702 437.384C305.19 437.768 304.55 438.2 303.782 438.68C303.014 439.128 302.23 439.496 301.43 439.784C300.662 440.072 299.91 440.216 299.174 440.216C298.438 440.184 297.862 439.88 297.446 439.304C297.03 438.664 296.838 438.104 296.87 437.624C296.902 437.112 297.062 436.648 297.35 436.232C297.638 435.816 298.022 435.416 298.502 435.032C298.982 434.648 299.478 434.264 299.99 433.88C300.502 433.496 301.078 433.08 301.718 432.632C302.39 432.152 303.062 431.656 303.734 431.144C304.406 430.632 305.062 430.12 305.702 429.608C306.374 429.064 306.982 428.52 307.526 427.976C307.974 427.528 308.214 427.128 308.246 426.776C308.31 426.392 308.342 425.896 308.342 425.288L308.39 423.656H302.822C301.734 423.72 300.774 423.688 299.942 423.56C299.206 423.432 298.518 423.208 297.878 422.888C297.27 422.536 296.934 421.992 296.87 421.256C296.838 420.904 296.854 420.552 296.918 420.2C296.982 419.816 297.094 419.48 297.254 419.192C297.414 418.872 297.638 418.616 297.926 418.424C298.214 418.2 298.55 418.072 298.934 418.04C299.158 418.008 299.382 417.992 299.606 417.992C299.862 417.992 300.134 417.992 300.422 417.992C300.518 417.992 300.726 417.992 301.046 417.992C301.398 417.992 301.782 418.008 302.198 418.04C302.614 418.04 302.998 418.04 303.35 418.04C303.702 418.04 303.942 418.04 304.07 418.04H308.63ZM326.294 446.024C326.39 446.056 326.486 446.072 326.582 446.072C326.678 446.04 326.774 446.024 326.87 446.024C327.414 446.088 327.91 446.2 328.358 446.36C328.838 446.488 329.302 446.744 329.75 447.128C330.198 447.576 330.422 448.136 330.422 448.808C330.422 449.16 330.358 449.528 330.23 449.912C330.134 450.328 329.99 450.648 329.798 450.872C329.542 451.128 329.222 451.32 328.838 451.448C328.454 451.576 328.086 451.656 327.734 451.688C327.382 451.752 327.062 451.784 326.774 451.784C326.518 451.784 326.374 451.784 326.342 451.784H299.462C299.302 451.784 299.142 451.784 298.982 451.784C298.822 451.816 298.662 451.832 298.502 451.832C297.83 451.864 297.11 451.848 296.342 451.784C295.574 451.752 294.918 451.512 294.374 451.064C293.702 450.456 293.366 449.768 293.366 449C293.366 448.52 293.51 448.024 293.798 447.512C294.086 447 294.47 446.648 294.95 446.456C295.59 446.2 296.246 446.072 296.918 446.072C297.622 446.072 298.326 446.056 299.03 446.024H299.27C302.406 445.96 305.59 445.96 308.822 446.024L308.774 439.976C308.774 439.688 308.822 439.384 308.918 439.064C308.982 438.808 309.094 438.536 309.254 438.248C309.446 437.96 309.718 437.688 310.07 437.432C310.486 437.144 310.966 436.968 311.51 436.904C312.086 436.84 312.63 436.904 313.142 437.096C313.654 437.256 314.086 437.544 314.438 437.96C314.79 438.344 314.966 438.824 314.966 439.4L315.014 446.024C316.486 445.992 317.814 445.976 318.998 445.976C320.214 445.976 321.558 445.992 323.03 446.024C323.606 446.056 324.166 446.056 324.71 446.024C325.254 445.96 325.782 445.96 326.294 446.024ZM334.239 448.232C334.239 446.888 334.655 445.784 335.487 444.92C336.319 444.024 337.439 443.336 338.847 442.856C340.255 442.344 341.903 441.992 343.791 441.8C345.711 441.608 347.759 441.512 349.935 441.512C352.111 441.512 354.143 441.576 356.031 441.704C357.951 441.832 359.615 442.136 361.023 442.616C362.463 443.064 363.599 443.736 364.431 444.632C365.263 445.528 365.679 446.728 365.679 448.232C365.679 449.736 365.263 450.92 364.431 451.784C363.599 452.68 362.463 453.368 361.023 453.848C359.615 454.328 357.951 454.632 356.031 454.76C354.143 454.92 352.111 455 349.935 455C347.759 455 345.711 454.92 343.791 454.76C341.903 454.632 340.255 454.328 338.847 453.848C337.439 453.368 336.319 452.68 335.487 451.784C334.655 450.92 334.239 449.736 334.239 448.232ZM339.327 430.76C338.943 430.76 338.495 430.744 337.983 430.712C337.471 430.68 336.975 430.6 336.495 430.472C336.047 430.344 335.631 430.152 335.247 429.896C334.895 429.64 334.655 429.288 334.527 428.84C334.431 428.488 334.351 428.216 334.287 428.024C334.255 427.832 334.207 427.656 334.143 427.496C334.111 427.336 334.079 427.16 334.047 426.968C334.047 426.776 334.047 426.488 334.047 426.104V421.928C334.047 421.96 334.031 421.848 333.999 421.592C333.999 421.336 334.015 421.032 334.047 420.68C334.079 420.296 334.143 419.896 334.239 419.48C334.367 419.032 334.527 418.648 334.719 418.328C334.911 418.008 335.215 417.752 335.631 417.56C336.079 417.368 336.511 417.224 336.927 417.128C337.375 417.032 337.775 416.984 338.127 416.984C338.479 416.952 338.703 416.936 338.799 416.936H359.919C360.591 416.936 361.279 416.936 361.983 416.936C362.719 416.936 363.407 417.064 364.047 417.32C364.591 417.544 364.959 417.912 365.151 418.424C365.343 418.936 365.423 419.48 365.391 420.056C365.327 420.6 365.119 421.064 364.767 421.448C364.447 421.832 364.015 422.104 363.471 422.264C362.959 422.392 362.063 422.456 360.783 422.456H359.727C359.567 422.456 359.423 422.44 359.295 422.408H342.303C342.143 422.376 341.903 422.376 341.583 422.408C341.295 422.408 341.071 422.456 340.911 422.552C340.815 422.584 340.751 422.728 340.719 422.984C340.687 423.208 340.671 423.48 340.671 423.8C340.671 424.088 340.671 424.36 340.671 424.616C340.703 424.872 340.735 425.048 340.767 425.144C340.895 425.368 341.167 425.496 341.583 425.528C341.999 425.528 342.383 425.512 342.735 425.48C343.119 425.48 343.615 425.48 344.223 425.48C344.831 425.48 345.663 425.48 346.719 425.48C347.775 425.48 349.119 425.48 350.751 425.48C352.383 425.48 354.399 425.48 356.799 425.48H360.351C361.151 425.48 361.871 425.496 362.511 425.528C363.183 425.528 363.791 425.656 364.335 425.912C364.975 426.2 365.407 426.744 365.631 427.544C365.791 428.344 365.631 429.064 365.151 429.704C364.639 430.344 364.079 430.68 363.471 430.712C362.895 430.744 362.255 430.776 361.551 430.808C361.231 430.808 360.591 430.824 359.631 430.856C358.671 430.856 357.615 430.872 356.463 430.904C355.343 430.904 354.255 430.904 353.199 430.904C352.143 430.904 351.359 430.904 350.847 430.904C350.303 430.904 349.503 430.904 348.447 430.904C347.391 430.904 346.271 430.904 345.087 430.904C343.903 430.872 342.783 430.856 341.727 430.856C340.671 430.824 339.871 430.792 339.327 430.76ZM362.991 433.688C363.535 433.688 364.111 433.704 364.719 433.736C365.327 433.768 365.887 433.88 366.399 434.072C366.911 434.232 367.327 434.504 367.647 434.888C367.999 435.24 368.207 435.752 368.271 436.424C368.303 436.776 368.223 437.096 368.031 437.384C367.871 437.672 367.631 437.96 367.311 438.248C367.055 438.472 366.735 438.648 366.351 438.776C365.999 438.872 365.615 438.952 365.199 439.016C364.815 439.048 364.415 439.064 363.999 439.064C363.615 439.064 363.263 439.048 362.943 439.016C362.879 439.016 362.799 439.016 362.703 439.016C362.607 438.984 362.303 438.968 361.791 438.968C361.279 438.968 360.495 438.968 359.439 438.968C358.383 438.968 356.863 438.968 354.879 438.968C352.927 438.968 350.415 438.968 347.343 438.968C344.303 438.968 340.559 438.968 336.111 438.968C336.079 438.968 335.935 438.968 335.679 438.968C335.423 438.968 335.119 438.936 334.767 438.872C334.447 438.808 334.111 438.728 333.759 438.632C333.407 438.504 333.119 438.312 332.895 438.056C332.511 437.64 332.319 437.144 332.319 436.568C332.319 436.216 332.367 435.848 332.463 435.464C332.591 435.08 332.751 434.808 332.943 434.648C333.359 434.296 333.823 434.056 334.335 433.928C334.879 433.768 335.631 433.688 336.591 433.688H362.991ZM359.343 448.232C359.343 447.72 359.055 447.336 358.479 447.08C357.935 446.792 357.199 446.584 356.271 446.456C355.375 446.328 354.367 446.264 353.247 446.264C352.127 446.232 351.023 446.216 349.935 446.216C348.847 446.216 347.759 446.232 346.671 446.264C345.583 446.264 344.607 446.328 343.743 446.456C342.879 446.584 342.175 446.792 341.631 447.08C341.119 447.336 340.863 447.72 340.863 448.232C340.863 448.68 341.119 449.032 341.631 449.288C342.175 449.576 342.879 449.784 343.743 449.912C344.607 450.072 345.583 450.168 346.671 450.2C347.759 450.264 348.847 450.296 349.935 450.296C351.023 450.296 352.127 450.296 353.247 450.296C354.367 450.328 355.375 450.28 356.271 450.152C357.199 450.056 357.935 449.864 358.479 449.576C359.055 449.288 359.343 448.84 359.343 448.232ZM403.217 420.44C403.185 420.696 403.169 420.904 403.169 421.064C403.169 421.224 403.169 421.368 403.169 421.496V424.088C403.169 424.568 403.169 425.064 403.169 425.576C403.169 426.088 403.185 426.616 403.217 427.16V430.28C403.185 430.824 403.169 431.304 403.169 431.72C403.169 432.136 403.137 432.552 403.073 432.968C402.977 433.864 402.673 434.584 402.161 435.128C401.681 435.672 400.977 436.008 400.049 436.136C399.761 436.2 399.489 436.248 399.233 436.28C399.009 436.28 398.769 436.28 398.513 436.28H397.073C396.785 436.28 396.465 436.296 396.113 436.328C395.761 436.328 395.329 436.328 394.817 436.328C394.305 436.328 393.793 436.328 393.281 436.328C392.769 436.328 392.257 436.312 391.745 436.28H378.929C378.577 436.28 378.225 436.28 377.873 436.28C377.553 436.248 377.249 436.2 376.961 436.136C376.609 436.136 376.273 436.088 375.953 435.992C375.633 435.864 375.361 435.688 375.137 435.464C374.817 435.208 374.529 434.808 374.273 434.264C374.177 434.008 374.081 433.752 373.985 433.496C373.921 433.24 373.873 432.984 373.841 432.728C373.777 432.536 373.713 432.312 373.649 432.056C373.617 431.8 373.601 431.576 373.601 431.384V421.928C373.601 421.64 373.569 421.336 373.505 421.016C373.441 420.664 373.409 420.344 373.409 420.056C373.377 419.704 373.377 419.384 373.409 419.096C373.441 418.776 373.537 418.456 373.697 418.136C373.761 417.752 373.857 417.432 373.985 417.176C374.113 416.888 374.289 416.712 374.513 416.648C374.673 416.488 374.913 416.376 375.233 416.312C375.553 416.248 375.905 416.184 376.289 416.12C376.545 416.12 376.833 416.152 377.153 416.216C377.473 416.28 377.777 416.344 378.065 416.408C378.833 416.664 379.233 417.08 379.265 417.656V419.768C379.265 420.056 379.265 420.328 379.265 420.584C379.297 420.808 379.313 421.032 379.313 421.256C379.313 421.512 379.329 421.752 379.361 421.976C379.425 422.2 379.633 422.312 379.985 422.312H396.785C396.849 422.312 396.945 422.296 397.073 422.264C397.233 422.232 397.377 422.2 397.505 422.168V421.496C397.569 421.24 397.601 421.016 397.601 420.824C397.601 420.632 397.601 420.44 397.601 420.248V418.232C397.601 417.944 397.617 417.672 397.649 417.416C397.713 417.128 397.825 416.904 397.985 416.744C398.081 416.584 398.225 416.456 398.417 416.36C398.641 416.264 398.897 416.184 399.185 416.12C399.345 416.088 399.633 416.072 400.049 416.072H401.009C401.361 416.072 401.665 416.136 401.921 416.264C402.593 416.488 402.977 416.888 403.073 417.464C403.137 417.72 403.169 417.976 403.169 418.232C403.169 418.456 403.185 418.68 403.217 418.904V420.44ZM402.545 440.216C402.865 440.216 403.153 440.248 403.409 440.312C403.665 440.376 403.921 440.472 404.177 440.6C404.593 440.76 404.977 441.048 405.329 441.464C405.585 441.816 405.713 442.36 405.713 443.096C405.713 443.512 405.665 443.864 405.569 444.152C405.473 444.408 405.249 444.664 404.897 444.92C404.385 445.336 403.777 445.592 403.073 445.688C402.209 445.88 401.393 445.976 400.625 445.976C400.209 445.976 399.825 446.008 399.473 446.072C399.153 446.104 398.865 446.12 398.609 446.12H391.169C391.233 446.568 391.265 447.128 391.265 447.8C391.297 448.44 391.313 448.936 391.313 449.288C391.345 449.96 391.297 450.744 391.169 451.64C391.073 452.216 390.897 452.76 390.641 453.272C390.545 453.816 390.209 454.28 389.633 454.664C389.377 454.856 389.089 454.984 388.769 455.048C388.481 455.144 388.193 455.192 387.905 455.192C387.201 455.192 386.609 455.016 386.129 454.664C385.681 454.472 385.377 454.12 385.217 453.608C385.089 453.32 384.977 453.064 384.881 452.84C384.817 452.648 384.785 452.44 384.785 452.216C384.721 452.056 384.689 451.88 384.689 451.688C384.689 451.496 384.689 451.304 384.689 451.112V446.12H374.513C374.097 446.12 373.713 446.088 373.361 446.024C373.009 445.96 372.689 445.896 372.401 445.832C371.665 445.576 371.121 445.16 370.769 444.584C370.545 444.296 370.401 444.008 370.337 443.72C370.273 443.432 370.241 443.112 370.241 442.76C370.241 442.152 370.481 441.624 370.961 441.176C371.217 440.92 371.505 440.728 371.825 440.6C372.081 440.504 372.273 440.44 372.401 440.408C372.561 440.376 372.753 440.36 372.977 440.36C373.169 440.296 373.345 440.264 373.505 440.264C373.665 440.264 373.825 440.264 373.985 440.264H374.369L400.913 440.12C401.169 440.12 401.441 440.12 401.729 440.12C402.017 440.12 402.289 440.152 402.545 440.216ZM397.409 429.944C397.473 429.848 397.505 429.608 397.505 429.224C397.505 429.064 397.505 428.92 397.505 428.792C397.505 428.664 397.473 428.552 397.409 428.456C397.409 428.168 397.393 427.992 397.361 427.928C397.201 427.768 397.041 427.672 396.881 427.64C396.753 427.576 396.609 427.512 396.449 427.448H385.937L383.969 427.4H382.961C382.801 427.4 382.641 427.4 382.481 427.4C382.353 427.4 382.177 427.368 381.953 427.304C381.729 427.304 381.505 427.32 381.281 427.352C381.089 427.352 380.897 427.352 380.705 427.352C380.321 427.352 379.985 427.448 379.697 427.64C379.601 427.736 379.505 427.864 379.409 428.024C379.345 428.184 379.345 428.392 379.409 428.648V430.184C379.473 430.312 379.505 430.392 379.505 430.424V430.472C379.505 430.696 379.633 430.904 379.889 431.096C380.049 431.16 380.177 431.224 380.273 431.288C380.401 431.32 380.545 431.336 380.705 431.336C381.025 431.4 381.345 431.4 381.665 431.336H394.001C394.097 431.336 394.209 431.352 394.337 431.384C394.497 431.384 394.657 431.368 394.817 431.336H395.681C395.745 431.336 395.809 431.336 395.873 431.336C395.937 431.336 396.049 431.352 396.209 431.384H396.785C396.849 431.352 396.929 431.336 397.025 431.336C397.121 431.304 397.201 431.256 397.265 431.192C397.329 431.064 397.361 430.968 397.361 430.904C397.393 430.84 397.409 430.728 397.409 430.568V429.944Z" fill="white"/>
<path d="M144.96 453.224C143.488 453.224 142.064 453.048 140.688 452.696C139.344 452.376 138.112 451.72 136.992 450.728C136.576 450.344 136.176 449.896 135.792 449.384C135.44 448.904 135.184 448.424 135.024 447.944C134.896 447.432 134.912 446.936 135.072 446.456C135.232 445.944 135.632 445.496 136.272 445.112C136.688 444.856 137.056 444.728 137.376 444.728C137.728 444.728 138.048 444.808 138.336 444.968C138.656 445.128 138.944 445.352 139.2 445.64C139.488 445.896 139.776 446.152 140.064 446.408C140.8 447.016 141.584 447.416 142.416 447.608C143.28 447.8 144.176 447.896 145.104 447.896C146.16 447.896 147.136 447.64 148.032 447.128C148.928 446.616 149.68 445.944 150.288 445.112C150.928 444.28 151.392 443.336 151.68 442.28C151.968 441.224 152.032 440.168 151.872 439.112C150.944 439.656 149.888 440.088 148.704 440.408C147.52 440.696 146.384 440.84 145.296 440.84C143.568 440.84 142 440.6 140.592 440.12C139.216 439.608 138.032 438.904 137.04 438.008C136.048 437.08 135.28 435.96 134.736 434.648C134.192 433.336 133.92 431.88 133.92 430.28C133.92 428.616 134.208 427.08 134.784 425.672C135.36 424.232 136.176 423 137.232 421.976C138.288 420.92 139.552 420.104 141.024 419.528C142.496 418.92 144.128 418.616 145.92 418.616C147.968 418.616 149.68 418.92 151.056 419.528C152.464 420.104 153.744 420.984 154.896 422.168C156.08 423.416 156.944 425.048 157.488 427.064C158.064 429.08 158.352 431.736 158.352 435.032C158.352 437.72 158.048 440.184 157.44 442.424C156.864 444.664 156.016 446.584 154.896 448.184C153.776 449.784 152.368 451.016 150.672 451.88C149.008 452.776 147.104 453.224 144.96 453.224ZM146.064 424.424C145.488 424.392 144.912 424.424 144.336 424.52C143.792 424.584 143.296 424.696 142.848 424.856C141.984 425.208 141.296 425.784 140.784 426.584C140.272 427.352 139.952 428.2 139.824 429.128C139.696 430.056 139.76 430.984 140.016 431.912C140.304 432.84 140.8 433.608 141.504 434.216C142.112 434.792 142.832 435.176 143.664 435.368C144.496 435.56 145.328 435.608 146.16 435.512C147.024 435.416 147.84 435.176 148.608 434.792C149.376 434.408 150.016 433.912 150.528 433.304C151.04 432.696 151.376 432.056 151.536 431.384C151.728 430.68 151.76 429.992 151.632 429.32C151.536 428.616 151.312 427.96 150.96 427.352C150.608 426.712 150.176 426.152 149.664 425.672C149.216 425.32 148.672 425.048 148.032 424.856C147.424 424.632 146.768 424.488 146.064 424.424ZM182.25 447.032C182.346 447.192 182.426 447.368 182.49 447.56C182.586 447.72 182.666 447.912 182.73 448.136C182.826 448.488 182.89 448.872 182.922 449.288C182.954 449.704 182.858 450.136 182.634 450.584C182.122 451.576 181.418 452.104 180.522 452.168H180.474C179.898 452.168 179.386 451.976 178.938 451.592C178.522 451.208 178.074 450.744 177.594 450.2C177.114 449.688 176.682 449.176 176.298 448.664C175.914 448.152 175.562 447.688 175.242 447.272C175.21 447.208 175.162 447.144 175.098 447.08C175.066 446.984 175.018 446.872 174.954 446.744C174.154 445.528 173.562 444.68 173.178 444.2C172.794 443.72 172.57 443.464 172.506 443.432C172.442 443.496 172.282 443.672 172.026 443.96C171.802 444.216 171.658 444.376 171.594 444.44C171.53 444.536 171.466 444.632 171.402 444.728C171.338 444.792 171.274 444.856 171.21 444.92C170.922 445.24 170.682 445.576 170.49 445.928C170.33 446.248 170.122 446.584 169.866 446.936C169.61 447.288 169.338 447.624 169.05 447.944C168.794 448.264 168.522 448.584 168.234 448.904C168.106 449.032 167.978 449.192 167.85 449.384C167.37 449.928 166.858 450.456 166.314 450.968C165.802 451.48 165.194 451.864 164.49 452.12C164.202 452.248 163.882 452.312 163.53 452.312C162.794 452.312 162.138 452.024 161.562 451.448C161.018 450.904 160.746 450.232 160.746 449.432C160.778 448.856 160.922 448.312 161.178 447.8C161.466 447.288 161.738 446.808 161.994 446.36L162.09 446.168C162.186 446.008 162.282 445.864 162.378 445.736C162.474 445.608 162.57 445.48 162.666 445.352C162.73 445.256 162.778 445.176 162.81 445.112C162.874 445.016 162.938 444.936 163.002 444.872C163.386 444.296 163.722 443.832 164.01 443.48C164.074 443.416 164.106 443.368 164.106 443.336C164.138 443.272 164.186 443.208 164.25 443.144C164.314 443.016 164.378 442.936 164.442 442.904L164.538 442.76C164.666 442.6 164.778 442.456 164.874 442.328C164.97 442.168 165.066 442.008 165.162 441.848C165.386 441.496 165.578 441.176 165.738 440.888C165.93 440.568 166.106 440.264 166.266 439.976C166.458 439.624 166.65 439.288 166.842 438.968C167.034 438.616 167.258 438.28 167.514 437.96C167.674 437.704 167.834 437.448 167.994 437.192C168.186 436.936 168.362 436.68 168.522 436.424L168.714 436.136C168.938 435.784 169.098 435.48 169.194 435.224C169.322 434.936 169.402 434.616 169.434 434.264C169.498 433.752 169.53 433.256 169.53 432.776C169.53 432.264 169.53 431.72 169.53 431.144V423.224C169.53 422.904 169.53 422.6 169.53 422.312C169.53 422.024 169.546 421.72 169.578 421.4C169.578 421.048 169.61 420.696 169.674 420.344C169.738 419.992 169.818 419.672 169.914 419.384C170.074 418.968 170.282 418.552 170.538 418.136C170.698 417.88 170.922 417.688 171.21 417.56C171.53 417.432 171.866 417.336 172.218 417.272L172.314 417.224C172.57 417.16 172.794 417.144 172.986 417.176C173.21 417.176 173.45 417.224 173.706 417.32C174.026 417.448 174.266 417.592 174.426 417.752C174.586 417.88 174.714 418.056 174.81 418.28C174.906 418.504 175.002 418.744 175.098 419C175.386 419.608 175.578 420.392 175.674 421.352C175.802 422.696 175.882 424.12 175.914 425.624C175.946 427.096 175.962 428.504 175.962 429.848C175.994 430.68 176.01 431.512 176.01 432.344C176.01 433.144 176.042 433.944 176.106 434.744C176.138 435.448 176.314 436.104 176.634 436.712C176.986 437.32 177.338 437.928 177.69 438.536C178.042 439.24 178.41 439.944 178.794 440.648C179.178 441.32 179.578 441.992 179.994 442.664C180.154 442.984 180.314 443.304 180.474 443.624C180.666 443.912 180.858 444.216 181.05 444.536C181.114 444.696 181.178 444.84 181.242 444.968C181.338 445.096 181.418 445.224 181.482 445.352C181.546 445.512 181.626 445.688 181.722 445.88C181.818 446.04 181.898 446.2 181.962 446.36L182.106 446.744L182.25 447.032ZM194.346 451.064C194.282 451.448 194.234 451.816 194.202 452.168C194.17 452.552 194.09 452.936 193.962 453.32C193.898 453.448 193.85 453.56 193.818 453.656C193.786 453.752 193.738 453.864 193.674 453.992C193.45 454.44 193.162 454.792 192.81 455.048C192.074 455.496 191.258 455.608 190.362 455.384C189.85 455.288 189.434 455.096 189.114 454.808C188.826 454.552 188.602 454.216 188.442 453.8C188.314 453.416 188.202 453.032 188.106 452.648C188.042 452.264 188.01 451.928 188.01 451.64C188.01 451.352 188.01 451.192 188.01 451.16V421.496C188.01 421.112 188.01 420.696 188.01 420.248C188.01 419.8 188.042 419.352 188.106 418.904C188.17 418.456 188.266 418.04 188.394 417.656C188.522 417.272 188.698 416.968 188.922 416.744C189.274 416.392 189.642 416.184 190.026 416.12C190.41 416.024 190.826 415.976 191.274 415.976C191.818 415.976 192.314 416.136 192.762 416.456C193.242 416.744 193.578 417.16 193.77 417.704C194.058 418.376 194.218 419.08 194.25 419.816C194.282 420.552 194.314 421.288 194.346 422.024V422.264C194.41 424.728 194.426 427.256 194.394 429.848C194.362 432.44 194.346 434.888 194.346 437.192V449.336C194.346 449.624 194.346 449.912 194.346 450.2C194.378 450.488 194.378 450.776 194.346 451.064Z" fill="#A11838"/>
</g>
<path d="M134.625 118H160.641V298H134.625V118Z" fill="#5C5C5C"/>
<rect x="93" y="165.184" width="111" height="26.2136" fill="#5C5C5C"/>
<defs>
<clipPath id="clip0_4_2">
<rect width="470" height="90" fill="white" transform="translate(44 990)"/>
</clipPath>
<clipPath id="clip1_4_2">
<rect width="470" height="180" fill="white" transform="translate(44 772)"/>
</clipPath>
<clipPath id="clip2_4_2">
<rect width="470" height="180" fill="white" transform="translate(44 554)"/>
</clipPath>
<clipPath id="clip3_4_2">
<rect width="470" height="180" fill="white" transform="translate(44 336)"/>
</clipPath>
</defs>
</svg>
